#!OML:ASF I:\golf\golf\golf 2\Subject 1\2002-09-07\Subject1.ASF
:FULLY-SPECIFIED
:DEGREES
293
root -6.51342 17.8194 2.85991 3.86051 43.8152 -11.2803
lowerback 3.17959 -9.79146 -10.9787
upperback -0.736423 -13.4233 -2.82071
thorax -0.73991 -6.56993 3.28803
lowerneck -7.58064 20.7227 1.33761
upperneck 13.6338 30.8408 -14.8209
head 8.07194 13.691 -1.57017
rclavicle -4.47266e-015 2.8625e-014
rhumerus 22.7224 -29.5826 -46.5125
rradius 114.602
rwrist 8.03023
rhand -62.9428 66.2815
rfingers 7.12502
rthumb -34.9487 39.7135
lclavicle -4.47266e-015 2.8625e-014
lhumerus 115.788 -40.4044 41.4847
lradius 43.2826
lwrist -14.9932
lhand -40.1042 -0.331072
lfingers 7.12502
lthumb -193.068 -150.76
rfemur -32.3805 18.8025 22.1145
rtibia 30.8137
rfoot -7.78494 18.4578
rtoes 21.257
lfemur -1.00993 13.4209 3.90908
ltibia 25.2763
lfoot -1.92724 24.1526
ltoes -30.0498
294
root -6.5143 17.8198 2.86267 3.85584 43.7362 -11.3574
lowerback 3.16527 -9.77759 -10.9349
upperback -0.777478 -13.4054 -2.84111
thorax -0.792133 -6.55744 3.24985
lowerneck -7.38252 20.7013 1.46415
upperneck 13.5832 30.7982 -14.9084
head 8.05227 13.6854 -1.6342
rclavicle -4.00551e-014 8.26944e-014
rhumerus 22.4888 -29.8948 -45.9669
rradius 114.653
rwrist 8.14735
rhand -62.8191 67.038
rfingers 7.12502
rthumb -34.8313 40.4427
lclavicle -4.00551e-014 8.26944e-014
lhumerus 116.021 -40.2976 41.3653
lradius 43.4214
lwrist -15.2587
lhand -40.3465 0.0613158
lfingers 7.12502
lthumb -193.302 -150.383
rfemur -32.3946 18.8238 22.1888
rtibia 30.7434
rfoot -7.74511 18.5171
rtoes 21.3237
lfemur -0.996168 13.3633 3.98734
ltibia 25.2595
lfoot -3.37862 24.3003
ltoes -25.9774
295
root -6.51591 17.8217 2.86785 3.74883 43.6446 -11.4947
lowerback 3.15511 -9.7419 -10.8534
upperback -0.773551 -13.354 -2.89935
thorax -0.820792 -6.53112 3.15295
lowerneck -7.11022 20.6819 1.72524
upperneck 13.5064 30.7356 -14.9942
head 8.02874 13.6833 -1.72118
rclavicle -4.91992e-014 4.77083e-014
rhumerus 22.1748 -30.217 -45.4592
rradius 114.757
rwrist 8.18271
rhand -62.6796 67.1893
rfingers 7.12502
rthumb -34.6989 40.5635
lclavicle -4.91992e-014 4.77083e-014
lhumerus 116.257 -40.2863 41.2207
lradius 43.5684
lwrist -15.2976
lhand -40.5512 0.0435959
lfingers 7.12502
lthumb -193.499 -150.414
rfemur -32.3466 19.0008 22.2957
rtibia 30.6891
rfoot -7.75453 18.4502
rtoes 21.3587
lfemur -0.90752 13.483 4.15917
ltibia 25.224
lfoot -3.13737 24.1942
ltoes -26.4683
296
root -6.51679 17.8258 2.87442 3.7404 43.5298 -11.44
lowerback 3.20012 -9.70832 -10.974
upperback -0.753558 -13.3171 -2.94203
thorax -0.813273 -6.51157 3.17656
lowerneck -7.08821 20.7251 1.85823
upperneck 13.5889 30.8 -14.986
head 8.07663 13.7124 -1.71864
rclavicle -5.89397e-014 -6.04305e-014
rhumerus 21.9173 -30.4717 -44.92
rradius 114.92
rwrist 8.097
rhand -62.5023 66.6548
rfingers 7.12502
rthumb -34.5307 39.9904
lclavicle -5.89397e-014 -6.04305e-014
lhumerus 116.509 -40.1576 41.1013
lradius 43.5277
lwrist -15.5125
lhand -41.0013 -0.296288
lfingers 7.12502
lthumb -193.933 -150.783
rfemur -32.2607 19.095 22.2893
rtibia 30.657
rfoot -7.68359 18.5092
rtoes 21.717
lfemur -0.757283 13.5913 4.17576
ltibia 25.1639
lfoot -3.0583 24.1482
ltoes -26.5125
297
root -6.51657 17.8269 2.87785 3.86468 43.4387 -11.263
lowerback 3.24428 -9.72429 -11.2057
upperback -0.754729 -13.3507 -2.93518
thorax -0.782443 -6.52644 3.30196
lowerneck -7.32615 20.7562 1.84976
upperneck 13.7949 30.9004 -14.978
head 8.19279 13.7242 -1.6637
rclavicle 6.11263e-014 3.18055e-015
rhumerus 21.8652 -30.6026 -44.5053
rradius 114.967
rwrist 8.14621
rhand -62.5262 66.4946
rfingers 7.12502
rthumb -34.5533 39.8354
lclavicle 6.11263e-014 3.18055e-015
lhumerus 116.603 -39.9229 41.1156
lradius 43.6097
lwrist -15.5495
lhand -41.1148 -0.405097
lfingers 7.12502
lthumb -194.042 -150.899
rfemur -32.241 19.0766 22.1774
rtibia 30.6342
rfoot -7.66106 18.6696
rtoes 21.7115
lfemur -0.661372 13.4736 4.04831
ltibia 25.1049
lfoot -3.7466 24.1948
ltoes -24.5949
298
root -6.51602 17.8249 2.87608 3.94318 43.3754 -11.2258
lowerback 3.23782 -9.73134 -11.2578
upperback -0.774138 -13.3622 -2.94186
thorax -0.788095 -6.53032 3.32099
lowerneck -7.46285 20.7154 1.95371
upperneck 13.9451 30.8919 -15.0549
head 8.29557 13.6941 -1.67045
rclavicle -4.2043e-014 -6.36111e-015
rhumerus 21.7244 -30.7156 -44.1114
rradius 114.949
rwrist 8.281
rhand -62.8305 69.3644
rfingers 7.12502
rthumb -34.8421 42.7716
lclavicle -4.2043e-014 -6.36111e-015
lhumerus 116.615 -39.8788 41.1859
lradius 43.9004
lwrist -15.402
lhand -40.9512 -0.347894
lfingers 7.12502
lthumb -193.885 -150.831
rfemur -32.296 19.0689 22.1295
rtibia 30.605
rfoot -7.63927 18.828
rtoes 21.6543
lfemur -0.641519 13.2989 4.00744
ltibia 25.0567
lfoot -4.39877 24.1926
ltoes -23.1034
299
root -6.51659 17.8245 2.87311 3.9256 43.3354 -11.3142
lowerback 3.23726 -9.68899 -11.1655
upperback -0.803382 -13.3062 -3.00949
thorax -0.862338 -6.49827 3.21568
lowerneck -7.24075 20.614 2.28826
upperneck 13.9861 30.7455 -15.1713
head 8.32934 13.6405 -1.77382
rclavicle 7.48424e-014 3.81667e-014
rhumerus 21.3095 -30.8869 -43.606
rradius 114.965
rwrist 8.23987
rhand -62.7627 69.3038
rfingers 7.12502
rthumb -34.7778 42.6961
lclavicle 7.48424e-014 3.81667e-014
lhumerus 116.733 -40.0785 41.1651
lradius 44.0871
lwrist -15.4654
lhand -40.9414 -0.216018
lfingers 7.12502
lthumb -193.875 -150.699
rfemur -32.3395 19.0697 22.18
rtibia 30.5579
rfoot -7.52881 18.934
rtoes 22.0041
lfemur -0.659714 13.2966 4.08411
ltibia 25.0217
lfoot -4.30835 24.1651
ltoes -23.4997
300
root -6.51594 17.8278 2.87165 3.88206 43.3256 -11.3828
lowerback 3.25825 -9.64979 -11.0915
upperback -0.825865 -13.2573 -3.086
thorax -0.938312 -6.46962 3.11328
lowerneck -7.00262 20.5469 2.46059
upperneck 13.9881 30.6189 -15.1371
head 8.29714 13.6076 -1.82592
rclavicle -4.3832e-014 4.77083e-014
rhumerus 20.8896 -31.0356 -43.125
rradius 114.997
rwrist 8.11669
rhand -62.846 69.6759
rfingers 7.12502
rthumb -34.8568 43.0865
lclavicle -4.3832e-014 4.77083e-014
lhumerus 116.871 -40.2899 41.139
lradius 44.15
lwrist -15.5513
lhand -40.9022 -0.125737
lfingers 7.12502
lthumb -193.837 -150.606
rfemur -32.3075 19.1197 22.2152
rtibia 30.4887
rfoot -7.50565 18.8997
rtoes 22.0159
lfemur -0.683311 13.3594 4.14799
ltibia 25.0393
lfoot -4.2135 24.1438
ltoes -23.3762
301
root -6.51232 17.8321 2.86898 3.93217 43.3155 -11.3256
lowerback 3.25122 -9.65955 -11.1222
upperback -0.831411 -13.2704 -3.11335
thorax -0.938476 -6.47511 3.09992
lowerneck -7.09476 20.5949 2.27297
upperneck 14.0299 30.6778 -14.9694
head 8.27435 13.6316 -1.74567
rclavicle -1.59028e-014 2.54444e-014
rhumerus 20.7089 -31.1191 -42.7679
rradius 114.986
rwrist 7.99515
rhand -63.0088 70.1693
rfingers 7.12502
rthumb -35.0113 43.6158
lclavicle -1.59028e-014 2.54444e-014
lhumerus 116.939 -40.2683 41.1601
lradius 44.1747
lwrist -15.4284
lhand -40.7213 0.00402497
lfingers 7.12502
lthumb -193.663 -150.464
rfemur -32.2671 19.1566 22.1386
rtibia 30.4124
rfoot -7.58215 18.8678
rtoes 21.5865
lfemur -0.738829 13.372 4.07582
ltibia 25.1123
lfoot -4.15049 24.1629
ltoes -23.3229
302
root -6.51061 17.8331 2.86522 3.95123 43.2979 -11.3425
lowerback 3.24431 -9.70539 -11.1622
upperback -0.816287 -13.3296 -3.07047
thorax -0.892133 -6.50715 3.15599
lowerneck -7.33483 20.6835 2.07537
upperneck 14.1156 30.8325 -14.8963
head 8.3157 13.677 -1.65562
rclavicle 2.88238e-015 -2.8625e-014
rhumerus 20.7158 -31.1104 -42.4938
rradius 114.9
rwrist 7.82054
rhand -63.1419 70.2502
rfingers 7.12502
rthumb -35.1376 43.7264
lclavicle 2.88238e-015 -2.8625e-014
lhumerus 116.858 -40.1271 41.2515
lradius 44.2113
lwrist -15.2959
lhand -40.5992 0.197016
lfingers 7.12502
lthumb -193.545 -150.264
rfemur -32.27 19.1711 22.1248
rtibia 30.3458
rfoot -7.62058 18.8873
rtoes 21.0634
lfemur -0.828507 13.5157 4.09221
ltibia 25.1918
lfoot -3.87703 24.1136
ltoes -24.0519
303
root -6.51044 17.8333 2.86139 3.95331 43.3054 -11.3645
lowerback 3.26275 -9.74648 -11.2289
upperback -0.795407 -13.3864 -3.02973
thorax -0.848545 -6.53758 3.227
lowerneck -7.49517 20.7339 1.98834
upperneck 14.1749 30.9294 -14.8889
head 8.35748 13.7022 -1.61068
rclavicle 4.73108e-014 0
rhumerus 20.6647 -31.0543 -42.2122
rradius 114.859
rwrist 7.51777
rhand -63.2149 70.0883
rfingers 7.12502
rthumb -35.2068 43.5808
lclavicle 4.73108e-014 0
lhumerus 116.72 -40.0766 41.3949
lradius 44.1963
lwrist -15.3464
lhand -40.6365 0.340363
lfingers 7.12502
lthumb -193.581 -150.123
rfemur -32.2822 19.1695 22.1198
rtibia 30.3007
rfoot -7.60505 18.9118
rtoes 20.8493
lfemur -0.916316 13.7558 4.14277
ltibia 25.2723
lfoot -3.62844 23.9315
ltoes -24.6688
304
root -6.50873 17.8358 2.85668 4.01789 43.3397 -11.2653
lowerback 3.28063 -9.75407 -11.3302
upperback -0.769054 -13.399 -3.05819
thorax -0.813674 -6.54454 3.24725
lowerneck -7.56308 20.7244 1.99684
upperneck 14.1617 30.9168 -14.9028
head 8.36708 13.692 -1.60967
rclavicle 1.39149e-015 5.725e-014
rhumerus 20.4558 -31.0679 -41.914
rradius 114.815
rwrist 7.1772
rhand -63.1655 70.6104
rfingers 7.12502
rthumb -35.1599 44.0918
lclavicle 1.39149e-015 5.725e-014
lhumerus 116.709 -40.1354 41.4732
lradius 44.1084
lwrist -15.4066
lhand -40.6379 0.33822
lfingers 7.12502
lthumb -193.583 -150.125
rfemur -32.2682 19.0794 22.0351
rtibia 30.2666
rfoot -7.5924 18.9801
rtoes 20.866
lfemur -0.998501 13.8649 4.06312
ltibia 25.3745
lfoot -3.55778 23.7972
ltoes -24.6786
